<?xml version="1.0" encoding="UTF-8" standalone="no"?>
<!-- Created with Inkscape (http://www.inkscape.org/) -->

<svg
   xmlns:dc="http://purl.org/dc/elements/1.1/"
   xmlns:cc="http://creativecommons.org/ns#"
   xmlns:rdf="http://www.w3.org/1999/02/22-rdf-syntax-ns#"
   xmlns:svg="http://www.w3.org/2000/svg"
   xmlns="http://www.w3.org/2000/svg"
   xmlns:sodipodi="http://sodipodi.sourceforge.net/DTD/sodipodi-0.dtd"
   xmlns:inkscape="http://www.inkscape.org/namespaces/inkscape"
   width="5.2916713mm"
   height="5.2916727mm"
   viewBox="0 0 5.2916713 5.2916727"
   version="1.1"
   id="svg8"
   inkscape:version="0.92.3 (unknown)">
  <defs
     id="defs2" />
  <sodipodi:namedview
     id="base"
     pagecolor="#ffffff"
     bordercolor="#666666"
     borderopacity="1.0"
     inkscape:pageopacity="0.0"
     inkscape:pageshadow="2"
     inkscape:zoom="0.98994949"
     inkscape:cx="-90.80486"
     inkscape:cy="1.5122033"
     inkscape:document-units="mm"
     inkscape:current-layer="layer1"
     showgrid="false"
     fit-margin-top="0"
     fit-margin-left="0"
     fit-margin-right="0"
     fit-margin-bottom="0"
     inkscape:window-width="1871"
     inkscape:window-height="1052"
     inkscape:window-x="1969"
     inkscape:window-y="0"
     inkscape:window-maximized="1" />
  <metadata
     id="metadata5">
    <rdf:RDF>
      <cc:Work
         rdf:about="">
        <dc:format>image/svg+xml</dc:format>
        <dc:type
           rdf:resource="http://purl.org/dc/dcmitype/StillImage" />
        <dc:title></dc:title>
      </cc:Work>
    </rdf:RDF>
  </metadata>
  <g
     inkscape:label="Layer 1"
     inkscape:groupmode="layer"
     id="layer1"
     transform="translate(-95.193291,-125.68854)">
    <path
       fill="#ffffff"
       style="stroke-width:0.03181386"
       d="m 95.884872,125.68854 c -0.176619,0 -0.353246,0.0677 -0.48858,0.203 -0.270668,0.27067 -0.270668,0.70643 0,0.9771 l 1.465737,1.46574 -1.465737,1.46573 c -0.270668,0.27067 -0.270668,0.70643 0,0.9771 0.270668,0.27067 0.706491,0.27067 0.977159,0 l 1.465673,-1.46574 1.465739,1.46574 c 0.270666,0.27067 0.706427,0.27067 0.977097,0 0.27067,-0.27067 0.27067,-0.70643 0,-0.9771 l -1.46574,-1.46573 1.46574,-1.46574 c 0.27067,-0.27067 0.27067,-0.70643 0,-0.9771 -0.27067,-0.27066 -0.706431,-0.27066 -0.977097,0 l -1.465739,1.46574 -1.465673,-1.46574 c -0.135334,-0.13533 -0.311962,-0.203 -0.488579,-0.203 z"
       id="rect10"
       inkscape:connector-curvature="0" />
  </g>
</svg>
